# xmcd
#
# Track frame offsets:
#	150
#	1312
#	14431
#	25793
#	48718
#	71935
#	88557
#	102933
#	126621
#	151798
#	163535
#	176537
#	201704
#
# Disc length: 3029 seconds
#
# Revision: 0
# Processed by: cddbd v1.4PL0 Copyright (c) Steve Scherf et al.
# Submitted via: EZCDDA 4.3.3.2
#
DISCID=b00bd30d
DTITLE=Ivonildo Do Nordeste - Só Vou Com Meias Novas
DYEAR=1900
DGENRE=
TTITLE0=Abertura
TTITLE1=Só Vou Com Meias Novas
TTITLE2=No Negócio De Maria
TTITLE3=Piadas I
TTITLE4=Piadas II
TTITLE5=Só Se For "D"
TTITLE6=Trás Álcool Zim
TTITLE7=Piadas III
TTITLE8=Piadas IV
TTITLE9=Preciso Dum Caba Assim
TTITLE10=Mulher Ingrata
TTITLE11=Piadas V
TTITLE12=Piadas VI
EXTD=
EXTT0=
EXTT1=
EXTT2=
EXTT3=
EXTT4=
EXTT5=
EXTT6=
EXTT7=
EXTT8=
EXTT9=
EXTT10=
EXTT11=
EXTT12=
PLAYORDER=
